77d210dc36d7a01988d159b3c902524c *tests/data/fate/matroska-dvbsub-remux.matroska
39010 tests/data/fate/matroska-dvbsub-remux.matroska
#extradata 0:        5, 0x00bb0064
#extradata 1:        5, 0x00bb0064
#tb 0: 1/1000
#media_type 0: subtitle
#codec_id 0: dvb_subtitle
#tb 1: 1/1000
#media_type 1: subtitle
#codec_id 1: dvb_subtitle
0,          0,          0,      280,       14, 0x05f400e1, F=0x21
1,          0,          0,        0,       14, 0x05f400e1, F=0x21
0,        280,        280,     5000,       14, 0x066400f1, F=0x21
1,        280,        280,        0,       14, 0x066400f1, F=0x21
0,       5280,       5280,     5020,       14, 0x06d40101, F=0x21
1,       5280,       5280,        0,       14, 0x06d40101, F=0x21
0,      10300,      10300,     3600,       14, 0x07440111, F=0x21
1,      10300,      10300,        0,       14, 0x07440111, F=0x21
0,      13900,      13900,      220,       14, 0x07b40121, F=0x21
1,      13900,      13900,        0,       14, 0x07b40121, F=0x21
0,      14120,      14120,     1440,       14, 0x08240131, F=0x21
1,      14120,      14120,        0,       14, 0x08240131, F=0x21
0,      15560,      15560,       40,       14, 0x08940141, F=0x21
1,      15560,      15560,        0,       14, 0x08940141, F=0x21
0,      15600,      15600,      160,      944, 0x454c0939, F=0x21
1,      15600,      15600,        0,      944, 0x454c0939, F=0x21
0,      15760,      15760,      240,      630, 0x49dbb35f, F=0x21
1,      15760,      15760,        0,      630, 0x49dbb35f, F=0x21
0,      16000,      16000,      340,      344, 0xb1eb63ed, F=0x21
1,      16000,      16000,        0,      344, 0xb1eb63ed, F=0x21
0,      16340,      16340,      600,      966, 0xb8a61edf, F=0x21
1,      16340,      16340,        0,      966, 0xb8a61edf, F=0x21
0,      16940,      16940,      460,      470, 0x80597fba, F=0x21
1,      16940,      16940,        0,      470, 0x80597fba, F=0x21
0,      17400,      17400,      360,     1212, 0x554768d6, F=0x21
1,      17400,      17400,        0,     1212, 0x554768d6, F=0x21
0,      17760,      17760,      220,     4804, 0xab67ddbe, F=0x21
1,      17760,      17760,        0,     4804, 0xab67ddbe, F=0x21
0,      17980,      17980,      960,     1016, 0x15e42d56, F=0x21
1,      17980,      17980,        0,     1016, 0x15e42d56, F=0x21
0,      18940,      18940,      220,      456, 0x57917e6f, F=0x21
1,      18940,      18940,        0,      456, 0x57917e6f, F=0x21
0,      19160,      19160,      260,      830, 0xcff3efde, F=0x21
1,      19160,      19160,        0,      830, 0xcff3efde, F=0x21
0,      19420,      19420,      100,      860, 0xd89903b6, F=0x21
1,      19420,      19420,        0,      860, 0xd89903b6, F=0x21
0,      19520,      19520,      220,     4426, 0x01eb43f1, F=0x21
1,      19520,      19520,        0,     4426, 0x01eb43f1, F=0x21
0,      19740,      19740,      220,     1132, 0xedda51a8, F=0x21
1,      19740,      19740,        0,     1132, 0xedda51a8, F=0x21
0,      19960,      19960,        0,      466, 0x9c957e09, F=0x21
1,      19960,      19960,        0,      466, 0x9c957e09, F=0x21
